<svg width="50" height="34" viewBox="0 0 50 34" fill="none" xmlns="http://www.w3.org/2000/svg">
<path d="M34.3431 16.737L47.1582 5.52303V27.8229L34.3431 16.737ZM17.8299 18.636L22.3301 22.5706C23.0364 23.1749 23.9572 23.54 24.9635 23.54H24.999H24.9969H25.026C26.0344 23.54 26.9553 23.1728 27.6699 22.5643L27.6637 22.5685L32.1638 18.6339L45.8436 30.4669H4.15642L17.8299 18.636ZM4.13767 2.86434H45.8686L25.824 20.3987C25.5986 20.5782 25.3196 20.6758 25.0323 20.6757H25.0031H25.0052H24.976C24.6877 20.6761 24.4078 20.5776 24.1823 20.3966L24.1843 20.3987L4.13767 2.86434ZM2.84387 5.52093L15.6569 16.7349L2.84387 27.8145V5.52093ZM47.8457 0.398699C47.3457 0.146889 46.7582 0 46.1353 0H3.87308C3.26922 0.000145284 2.67366 0.141665 2.13342 0.413388L2.15634 0.402896C1.50959 0.724187 0.964931 1.22123 0.583887 1.83789C0.202843 2.45454 0.000598667 3.16623 0 3.89256L0 29.4345C0.00110297 30.4682 0.409293 31.4592 1.13501 32.1902C1.86072 32.9211 2.84468 33.3322 3.87099 33.3333H46.129C47.1553 33.3322 48.1393 32.9211 48.865 32.1902C49.5907 31.4592 49.9989 30.4682 50 29.4345V3.89256C50 2.36701 49.127 1.04501 47.8562 0.409191L47.8332 0.398699H47.8457Z" fill="#E1E1E1"/>
</svg>
