<svg width="101" height="101" viewBox="0 0 101 101" fill="none" xmlns="http://www.w3.org/2000/svg">
<path fill-rule="evenodd" clip-rule="evenodd" d="M72.6248 64.4952L99.5248 91.3952C100.47 92.3413 101.001 93.6244 101.001 94.962C101 96.2996 100.468 97.5822 99.5223 98.5277C98.5762 99.4732 97.2931 100.004 95.9555 100.004C94.6179 100.003 93.3353 99.4713 92.3898 98.5252L65.4898 71.6252C57.4484 77.8536 47.3362 80.7846 37.2104 79.8219C27.0847 78.8593 17.706 74.0753 10.9822 66.4432C4.25848 58.8112 0.694768 48.9043 1.01608 38.7379C1.33738 28.5716 5.51957 18.9095 12.7118 11.7172C19.9041 4.52494 29.5662 0.342753 39.7325 0.0214465C49.8989 -0.29986 59.8058 3.26385 67.4379 9.9876C75.07 16.7113 79.8539 26.0901 80.8166 36.2158C81.7792 46.3416 78.8482 56.4537 72.6198 64.4952H72.6248ZM40.9998 70.0002C48.9563 70.0002 56.5869 66.8395 62.213 61.2134C67.8391 55.5873 70.9998 47.9567 70.9998 40.0002C70.9998 32.0437 67.8391 24.4131 62.213 18.787C56.5869 13.1609 48.9563 10.0002 40.9998 10.0002C33.0433 10.0002 25.4127 13.1609 19.7866 18.787C14.1605 24.4131 10.9998 32.0437 10.9998 40.0002C10.9998 47.9567 14.1605 55.5873 19.7866 61.2134C25.4127 66.8395 33.0433 70.0002 40.9998 70.0002V70.0002ZM55.9998 45.0002H45.9998V55.0002C45.9998 56.3263 45.473 57.598 44.5353 58.5357C43.5977 59.4734 42.3259 60.0002 40.9998 60.0002C39.6737 60.0002 38.402 59.4734 37.4643 58.5357C36.5266 57.598 35.9998 56.3263 35.9998 55.0002V45.0002H25.9998C24.6737 45.0002 23.402 44.4734 22.4643 43.5357C21.5266 42.598 20.9998 41.3263 20.9998 40.0002C20.9998 38.6741 21.5266 37.4023 22.4643 36.4647C23.402 35.527 24.6737 35.0002 25.9998 35.0002H35.9998V25.0002C35.9998 23.6741 36.5266 22.4023 37.4643 21.4647C38.402 20.527 39.6737 20.0002 40.9998 20.0002C42.3259 20.0002 43.5977 20.527 44.5353 21.4647C45.473 22.4023 45.9998 23.6741 45.9998 25.0002V35.0002H55.9998C57.3259 35.0002 58.5977 35.527 59.5353 36.4647C60.473 37.4023 60.9998 38.6741 60.9998 40.0002C60.9998 41.3263 60.473 42.598 59.5353 43.5357C58.5977 44.4734 57.3259 45.0002 55.9998 45.0002Z" fill="white"/>
</svg>
