<svg width="44" height="60" viewBox="0 0 44 60" fill="none" xmlns="http://www.w3.org/2000/svg">
<path d="M22 0L6 16H16V31H28V16H38L22 0ZM22 60C18.692 60 16 57.152 16 53.652V44.345C16 40.848 18.692 38 22 38C25.308 38 28 40.848 28 44.346V53.653C28 57.152 25.308 60 22 60ZM22 41.383C20.346 41.383 19 42.713 19 44.346V53.653C19 55.286 20.346 56.618 22 56.618C23.654 56.618 25 55.286 25 53.653V44.346C25 42.713 23.654 41.383 22 41.383M12 38H0V41H4.5V60H7.5V41H12V38ZM38 38H32V60H35V50.691H38C41.308 50.691 44 47.843 44 44.343C44 40.846 41.308 38 38 38ZM38 47.309H35V41.383H38C39.654 41.383 41 42.711 41 44.344C41 45.977 39.654 47.309 38 47.309Z" fill="#0B0D0A"/>
</svg>
